<?xml version="1.0" standalone="no"?>
<!DOCTYPE svg PUBLIC "-//W3C//DTD SVG 20010904//EN"
 "http://www.w3.org/TR/2001/REC-SVG-20010904/DTD/svg10.dtd">
<svg version="1.0" xmlns="http://www.w3.org/2000/svg"
 width="512.000000pt" height="512.000000pt" viewBox="0 0 512.000000 512.000000"
 preserveAspectRatio="xMidYMid meet">
<metadata>
Created by potrace 1.14, written by Peter Selinger 2001-2017
</metadata>
<g transform="translate(0.000000,512.000000) scale(0.100000,-0.100000)"
fill="#000000" stroke="none">
<path d="M2535 5113 c-41 -8 -65 -42 -140 -193 -43 -85 -78 -156 -80 -158 -2
-2 -123 -27 -185 -38 -107 -18 -198 -38 -212 -45 -25 -13 -48 -62 -48 -100 0
-34 40 -79 119 -138 66 -47 181 -143 181 -150 0 -3 -9 -60 -19 -125 l-20 -119
-54 -56 c-67 -69 -96 -100 -217 -231 -52 -56 -111 -119 -130 -140 -32 -33
-174 -187 -320 -344 -30 -33 -64 -69 -76 -80 -11 -12 -29 -33 -39 -49 -35 -55
5 -148 69 -159 12 -2 114 -3 228 -3 l207 1 -37 -46 c-42 -52 -356 -435 -381
-465 -75 -91 -344 -420 -375 -458 -62 -80 -58 -153 12 -188 28 -14 66 -17 246
-15 125 0 212 -3 209 -8 -4 -5 -90 -111 -192 -236 -102 -125 -202 -246 -221
-270 -19 -24 -40 -48 -45 -54 -6 -6 -26 -31 -45 -56 -19 -25 -37 -47 -40 -50
-6 -6 -42 -50 -187 -229 -89 -109 -103 -131 -103 -163 0 -28 8 -47 29 -70 l29
-33 702 -3 c385 -1 699 -6 696 -10 -2 -4 -7 -24 -10 -44 -16 -104 -105 -265
-206 -373 -33 -35 -60 -68 -61 -72 0 -5 -2 -17 -4 -27 -6 -32 22 -84 54 -100
26 -14 111 -16 691 -16 722 0 704 -1 733 58 15 30 15 69 1 94 -5 9 -30 38 -55
65 -97 103 -166 224 -199 352 l-18 66 700 5 700 5 29 33 c29 32 37 70 22 108
-3 9 -49 70 -102 134 -53 64 -112 136 -131 160 -19 24 -60 73 -90 110 -30 37
-71 86 -90 110 -42 52 -365 447 -389 475 -10 12 -20 25 -23 30 -4 6 73 10 205
9 231 -1 260 4 291 51 21 32 17 96 -7 123 -8 9 -150 184 -317 387 -166 204
-312 381 -324 395 -11 14 -37 45 -56 70 -19 25 -40 51 -48 58 -19 20 -62 78
-62 84 0 2 87 5 193 5 105 1 206 1 223 2 45 1 89 49 92 98 3 47 -6 60 -167
231 -61 66 -121 130 -132 143 -11 13 -51 56 -87 94 -37 39 -121 128 -187 200
-122 131 -170 182 -238 254 -38 39 -41 48 -52 126 -4 22 -10 56 -15 75 -21 76
-20 77 135 202 124 102 145 123 151 153 8 43 -9 88 -41 109 -18 12 -194 54
-379 92 -10 2 -20 5 -22 6 -1 2 -37 71 -79 153 -41 83 -86 157 -98 166 -25 19
-63 27 -92 22z"/>
</g>
</svg>
