<svg width="144" height="144" viewBox="0 0 144 144" fill="none" xmlns="http://www.w3.org/2000/svg">
<circle cx="72" cy="72" r="72" fill="#9EDCC6"/>
<path d="M101.334 105V97.6667C101.334 93.7768 99.7884 90.0463 97.0379 87.2958C94.2873 84.5452 90.5568 83 86.667 83H57.3337C53.4438 83 49.7133
 84.5452 46.9628 87.2958C44.2122 90.0463 42.667 93.7768 42.667 97.6667V105" stroke="#222" stroke-width="2" stroke-linecap="round" stroke-linejoin="round"/>
<path d="M71.9997 68.3333C80.0998 68.3333 86.6663 61.7668 86.6663 53.6667C86.6663 45.5665 80.0998 39 71.9997 39C63.8995 39 57.333 45.5665 57.333 53.6667C57.333 61.7668 63.8995 68.3333 71.9997 68.3333Z" stroke="#222" stroke-width="2" stroke-linecap="round" stroke-linejoin="round"/>
</svg>
